{
    "asset" : {
        "generator" : "Khronos glTF Blender I/O v1.5.17",
        "version" : "2.0"
    },
    "scene" : 0,
    "scenes" : [
        {
            "name" : "Scene",
            "nodes" : [
                0,
                1,
                2
            ]
        }
    ],
    "nodes" : [
        {
            "name" : "Light",
            "rotation" : [
                0.16907575726509094,
                0.7558803558349609,
                -0.27217137813568115,
                0.570947527885437
            ],
            "translation" : [
                4.076245307922363,
                5.903861999511719,
                -1.0054539442062378
            ]
        },
        {
            "name" : "Camera",
            "rotation" : [
                0.6946583986282349,
                0,
                0,
                0.7193397879600525
            ],
            "translation" : [
                0,
                0.9090883135795593,
                7.760808944702148
            ]
        },
        {
            "mesh" : 0,
            "name" : "\u0426\u0438\u043b\u0438\u043d\u0434\u0440",
            "rotation" : [
                0,
                0,
                -0.3320629894733429,
                0.9432573318481445
            ],
            "translation" : [
                0,
                0.3907589614391327,
                0.045472145080566406
            ]
        }
    ],
    "animations" : [
        {
            "channels" : [
                {
                    "sampler" : 0,
                    "target" : {
                        "node" : 2,
                        "path" : "rotation"
                    }
                }
            ],
            "name" : "\u0426\u0438\u043b\u0438\u043d\u0434\u0440Action",
            "samplers" : [
                {
                    "input" : 8,
                    "interpolation" : "LINEAR",
                    "output" : 9
                }
            ]
        }
    ],
    "materials" : [
        {
            "doubleSided" : true,
            "name" : "\u041c\u0430\u0442\u0435\u0440\u0438\u0430\u043b",
            "pbrMetallicRoughness" : {
                "baseColorFactor" : [
                    0.01563529670238495,
                    0.010166997089982033,
                    0.8000000715255737,
                    1
                ],
                "metallicFactor" : 0,
                "roughnessFactor" : 0.5
            }
        },
        {
            "doubleSided" : true,
            "name" : "\u041c\u0430\u0442\u0435\u0440\u0438\u0430\u043b.001",
            "pbrMetallicRoughness" : {
                "baseColorFactor" : [
                    0.800000011920929,
                    0.800000011920929,
                    0.800000011920929,
                    1
                ],
                "metallicFactor" : 0.5514705777168274,
                "roughnessFactor" : 0.5
            }
        }
    ],
    "meshes" : [
        {
            "name" : "\u0426\u0438\u043b\u0438\u043d\u0434\u0440",
            "primitives" : [
                {
                    "attributes" : {
                        "POSITION" : 0,
                        "NORMAL" : 1,
                        "TEXCOORD_0" : 2
                    },
                    "indices" : 3,
                    "material" : 0
                },
                {
                    "attributes" : {
                        "POSITION" : 4,
                        "NORMAL" : 5,
                        "TEXCOORD_0" : 6
                    },
                    "indices" : 7,
                    "material" : 1
                }
            ]
        }
    ],
    "accessors" : [
        {
            "bufferView" : 0,
            "componentType" : 5126,
            "count" : 1564,
            "max" : [
                0.08470556885004044,
                1.5,
                0.08481442928314209
            ],
            "min" : [
                -0.08470556885004044,
                -1.6536533832550049,
                -0.08481442183256149
            ],
            "type" : "VEC3"
        },
        {
            "bufferView" : 1,
            "componentType" : 5126,
            "count" : 1564,
            "type" : "VEC3"
        },
        {
            "bufferView" : 2,
            "componentType" : 5126,
            "count" : 1564,
            "type" : "VEC2"
        },
        {
            "bufferView" : 3,
            "componentType" : 5123,
            "count" : 2520,
            "type" : "SCALAR"
        },
        {
            "bufferView" : 4,
            "componentType" : 5126,
            "count" : 63,
            "max" : [
                0.030484318733215332,
                -1.3978811502456665,
                0.038239434361457825
            ],
            "min" : [
                0.005335637368261814,
                -1.705484390258789,
                -0.022011106833815575
            ],
            "type" : "VEC3"
        },
        {
            "bufferView" : 5,
            "componentType" : 5126,
            "count" : 63,
            "type" : "VEC3"
        },
        {
            "bufferView" : 6,
            "componentType" : 5126,
            "count" : 63,
            "type" : "VEC2"
        },
        {
            "bufferView" : 7,
            "componentType" : 5123,
            "count" : 93,
            "type" : "SCALAR"
        },
        {
            "bufferView" : 8,
            "componentType" : 5126,
            "count" : 97,
            "max" : [
                4
            ],
            "min" : [
                0
            ],
            "type" : "SCALAR"
        },
        {
            "bufferView" : 9,
            "componentType" : 5126,
            "count" : 97,
            "type" : "VEC4"
        }
    ],
    "bufferViews" : [
        {
            "buffer" : 0,
            "byteLength" : 18768,
            "byteOffset" : 0
        },
        {
            "buffer" : 0,
            "byteLength" : 18768,
            "byteOffset" : 18768
        },
        {
            "buffer" : 0,
            "byteLength" : 12512,
            "byteOffset" : 37536
        },
        {
            "buffer" : 0,
            "byteLength" : 5040,
            "byteOffset" : 50048
        },
        {
            "buffer" : 0,
            "byteLength" : 756,
            "byteOffset" : 55088
        },
        {
            "buffer" : 0,
            "byteLength" : 756,
            "byteOffset" : 55844
        },
        {
            "buffer" : 0,
            "byteLength" : 504,
            "byteOffset" : 56600
        },
        {
            "buffer" : 0,
            "byteLength" : 186,
            "byteOffset" : 57104
        },
        {
            "buffer" : 0,
            "byteLength" : 388,
            "byteOffset" : 57292
        },
        {
            "buffer" : 0,
            "byteLength" : 1552,
            "byteOffset" : 57680
        }
    ],
    "buffers" : [
        {
            "byteLength" : 59232,
            "uri" : "data:application/octet-stream;base64,"
        }
    ]
}
